<?xml version="1.0" encoding="UTF-8" standalone="no"?>
<!DOCTYPE svg PUBLIC "-//W3C//DTD SVG 1.1//EN"
 "http://www.w3.org/Graphics/SVG/1.1/DTD/svg11.dtd">
<!-- Generated by graphviz version 5.0.1 (0)
 -->
<!-- Pages: 1 -->
<svg width="263pt" height="188pt"
 viewBox="0.00 0.00 263.00 188.00" xmlns="http://www.w3.org/2000/svg" xmlns:xlink="http://www.w3.org/1999/xlink">
<g id="graph0" class="graph" transform="scale(1 1) rotate(0) translate(4 184)">
<polygon fill="white" stroke="none" points="-4,4 -4,-184 259,-184 259,4 -4,4"/>
<g id="clust1" class="cluster">
<title>cluster_</title>
<path fill="none" stroke="black" d="M20,-64C20,-64 235,-64 235,-64 241,-64 247,-70 247,-76 247,-76 247,-104 247,-104 247,-110 241,-116 235,-116 235,-116 20,-116 20,-116 14,-116 8,-110 8,-104 8,-104 8,-76 8,-76 8,-70 14,-64 20,-64"/>
</g>
<!-- stateTree__case_counting -->
<g id="node1" class="node">
<title>stateTree__case_counting</title>
<path fill="none" stroke="black" d="M227.5,-108C227.5,-108 172.5,-108 172.5,-108 166.5,-108 160.5,-102 160.5,-96 160.5,-96 160.5,-84 160.5,-84 160.5,-78 166.5,-72 172.5,-72 172.5,-72 227.5,-72 227.5,-72 233.5,-72 239.5,-78 239.5,-84 239.5,-84 239.5,-96 239.5,-96 239.5,-102 233.5,-108 227.5,-108"/>
<text text-anchor="middle" x="200" y="-86.3" font-family="Times,serif" font-size="14.00">counting</text>
</g>
<!-- msgLabel__countDown -->
<g id="node4" class="node">
<title>msgLabel__countDown</title>
<polygon fill="none" stroke="black" points="242.5,-180 151.5,-180 151.5,-144 248.5,-144 248.5,-174 242.5,-180"/>
<polyline fill="none" stroke="black" points="242.5,-180 242.5,-174"/>
<polyline fill="none" stroke="black" points="248.5,-174 242.5,-174"/>
<text text-anchor="middle" x="200" y="-158.3" font-family="Times,serif" font-size="14.00">countDown</text>
</g>
<!-- stateTree__case_counting&#45;&gt;msgLabel__countDown -->
<g id="edge1" class="edge">
<title>stateTree__case_counting&#45;&gt;msgLabel__countDown</title>
<path fill="none" stroke="black" d="M194.1,-108.1C193.3,-115.79 193.06,-125.05 193.4,-133.67"/>
<polygon fill="black" stroke="black" points="189.91,-133.96 194.08,-143.7 196.89,-133.48 189.91,-133.96"/>
</g>
<!-- stateTree__case_idle -->
<g id="node2" class="node">
<title>stateTree__case_idle</title>
<path fill="none" stroke="black" d="M130,-108C130,-108 100,-108 100,-108 94,-108 88,-102 88,-96 88,-96 88,-84 88,-84 88,-78 94,-72 100,-72 100,-72 130,-72 130,-72 136,-72 142,-78 142,-84 142,-84 142,-96 142,-96 142,-102 136,-108 130,-108"/>
<text text-anchor="middle" x="115" y="-86.3" font-family="Times,serif" font-size="14.00">idle</text>
</g>
<!-- msgLabel__start -->
<g id="node5" class="node">
<title>msgLabel__start</title>
<polygon fill="none" stroke="black" points="178,-36 130,-36 130,0 184,0 184,-30 178,-36"/>
<polyline fill="none" stroke="black" points="178,-36 178,-30"/>
<polyline fill="none" stroke="black" points="184,-30 178,-30"/>
<text text-anchor="middle" x="157" y="-14.3" font-family="Times,serif" font-size="14.00">start</text>
</g>
<!-- stateTree__case_idle&#45;&gt;msgLabel__start -->
<g id="edge4" class="edge">
<title>stateTree__case_idle&#45;&gt;msgLabel__start</title>
<path fill="none" stroke="black" d="M125.38,-71.7C130.26,-63.56 136.19,-53.69 141.58,-44.7"/>
<polygon fill="black" stroke="black" points="144.59,-46.48 146.74,-36.1 138.59,-42.88 144.59,-46.48"/>
</g>
<!-- stateTree__case_zero -->
<g id="node3" class="node">
<title>stateTree__case_zero</title>
<path fill="none" stroke="black" d="M58,-108C58,-108 28,-108 28,-108 22,-108 16,-102 16,-96 16,-96 16,-84 16,-84 16,-78 22,-72 28,-72 28,-72 58,-72 58,-72 64,-72 70,-78 70,-84 70,-84 70,-96 70,-96 70,-102 64,-108 58,-108"/>
<text text-anchor="middle" x="43" y="-86.3" font-family="Times,serif" font-size="14.00">zero</text>
</g>
<!-- msgLabel__countDown&#45;&gt;stateTree__case_counting -->
<g id="edge2" class="edge">
<title>msgLabel__countDown&#45;&gt;stateTree__case_counting</title>
<path fill="none" stroke="black" d="M205.92,-143.7C206.71,-135.98 206.94,-126.71 206.6,-118.11"/>
<polygon fill="black" stroke="black" points="210.08,-117.84 205.9,-108.1 203.1,-118.32 210.08,-117.84"/>
</g>
<!-- msgLabel__countDown&#45;&gt;stateTree__case_zero -->
<g id="edge3" class="edge">
<title>msgLabel__countDown&#45;&gt;stateTree__case_zero</title>
<path fill="none" stroke="black" d="M151.4,-146.05C128.81,-138.32 101.94,-127.99 79,-116 77.47,-115.2 75.93,-114.35 74.39,-113.45"/>
<polygon fill="black" stroke="black" points="76.04,-110.36 65.7,-108.03 72.33,-116.29 76.04,-110.36"/>
</g>
<!-- msgLabel__start&#45;&gt;stateTree__case_counting -->
<g id="edge5" class="edge">
<title>msgLabel__start&#45;&gt;stateTree__case_counting</title>
<path fill="none" stroke="black" d="M167.51,-36.1C172.49,-44.21 178.55,-54.08 184.08,-63.08"/>
<polygon fill="black" stroke="black" points="181.15,-65.01 189.37,-71.7 187.12,-61.34 181.15,-65.01"/>
</g>
</g>
</svg>
