<?xml version="1.0" encoding="UTF-8" standalone="no"?>
<!DOCTYPE svg PUBLIC "-//W3C//DTD SVG 1.1//EN"
 "http://www.w3.org/Graphics/SVG/1.1/DTD/svg11.dtd">
<!-- Generated by graphviz version 5.0.1 (0)
 -->
<!-- Pages: 1 -->
<svg width="194pt" height="132pt"
 viewBox="0.00 0.00 193.50 132.00" xmlns="http://www.w3.org/2000/svg" xmlns:xlink="http://www.w3.org/1999/xlink">
<g id="graph0" class="graph" transform="scale(1 1) rotate(0) translate(4 128)">
<polygon fill="white" stroke="none" points="-4,4 -4,-128 189.5,-128 189.5,4 -4,4"/>
<g id="clust1" class="cluster">
<title>cluster_</title>
<path fill="none" stroke="black" d="M33.5,-64C33.5,-64 151.5,-64 151.5,-64 157.5,-64 163.5,-70 163.5,-76 163.5,-76 163.5,-104 163.5,-104 163.5,-110 157.5,-116 151.5,-116 151.5,-116 33.5,-116 33.5,-116 27.5,-116 21.5,-110 21.5,-104 21.5,-104 21.5,-76 21.5,-76 21.5,-70 27.5,-64 33.5,-64"/>
</g>
<!-- stateTree__case_off -->
<g id="node1" class="node">
<title>stateTree__case_off</title>
<path fill="none" stroke="black" d="M143.5,-108C143.5,-108 113.5,-108 113.5,-108 107.5,-108 101.5,-102 101.5,-96 101.5,-96 101.5,-84 101.5,-84 101.5,-78 107.5,-72 113.5,-72 113.5,-72 143.5,-72 143.5,-72 149.5,-72 155.5,-78 155.5,-84 155.5,-84 155.5,-96 155.5,-96 155.5,-102 149.5,-108 143.5,-108"/>
<text text-anchor="middle" x="128.5" y="-86.3" font-family="Times,serif" font-size="14.00">off</text>
</g>
<!-- msgLabel__switchOn -->
<g id="node4" class="node">
<title>msgLabel__switchOn</title>
<polygon fill="none" stroke="black" points="77,-36 0,-36 0,0 83,0 83,-30 77,-36"/>
<polyline fill="none" stroke="black" points="77,-36 77,-30"/>
<polyline fill="none" stroke="black" points="83,-30 77,-30"/>
<text text-anchor="middle" x="41.5" y="-14.3" font-family="Times,serif" font-size="14.00">switchOn</text>
</g>
<!-- stateTree__case_off&#45;&gt;msgLabel__switchOn -->
<g id="edge3" class="edge">
<title>stateTree__case_off&#45;&gt;msgLabel__switchOn</title>
<path fill="none" stroke="black" d="M106.99,-71.7C96.04,-62.88 82.55,-52.03 70.68,-42.47"/>
<polygon fill="black" stroke="black" points="72.74,-39.65 62.76,-36.1 68.36,-45.1 72.74,-39.65"/>
</g>
<!-- stateTree__case_on -->
<g id="node2" class="node">
<title>stateTree__case_on</title>
<path fill="none" stroke="black" d="M71.5,-108C71.5,-108 41.5,-108 41.5,-108 35.5,-108 29.5,-102 29.5,-96 29.5,-96 29.5,-84 29.5,-84 29.5,-78 35.5,-72 41.5,-72 41.5,-72 71.5,-72 71.5,-72 77.5,-72 83.5,-78 83.5,-84 83.5,-84 83.5,-96 83.5,-96 83.5,-102 77.5,-108 71.5,-108"/>
<text text-anchor="middle" x="56.5" y="-86.3" font-family="Times,serif" font-size="14.00">on</text>
</g>
<!-- msgLabel__switchOff -->
<g id="node3" class="node">
<title>msgLabel__switchOff</title>
<polygon fill="none" stroke="black" points="179.5,-36 101.5,-36 101.5,0 185.5,0 185.5,-30 179.5,-36"/>
<polyline fill="none" stroke="black" points="179.5,-36 179.5,-30"/>
<polyline fill="none" stroke="black" points="185.5,-30 179.5,-30"/>
<text text-anchor="middle" x="143.5" y="-14.3" font-family="Times,serif" font-size="14.00">switchOff</text>
</g>
<!-- stateTree__case_on&#45;&gt;msgLabel__switchOff -->
<g id="edge1" class="edge">
<title>stateTree__case_on&#45;&gt;msgLabel__switchOff</title>
<path fill="none" stroke="black" d="M78.01,-71.7C88.96,-62.88 102.45,-52.03 114.32,-42.47"/>
<polygon fill="black" stroke="black" points="116.64,-45.1 122.24,-36.1 112.26,-39.65 116.64,-45.1"/>
</g>
<!-- msgLabel__switchOff&#45;&gt;stateTree__case_off -->
<g id="edge2" class="edge">
<title>msgLabel__switchOff&#45;&gt;stateTree__case_off</title>
<path fill="none" stroke="black" d="M139.83,-36.1C138.19,-43.79 136.2,-53.05 134.36,-61.67"/>
<polygon fill="black" stroke="black" points="130.88,-61.19 132.21,-71.7 137.73,-62.65 130.88,-61.19"/>
</g>
<!-- msgLabel__switchOn&#45;&gt;stateTree__case_on -->
<g id="edge4" class="edge">
<title>msgLabel__switchOn&#45;&gt;stateTree__case_on</title>
<path fill="none" stroke="black" d="M45.17,-36.1C46.81,-43.79 48.8,-53.05 50.64,-61.67"/>
<polygon fill="black" stroke="black" points="47.27,-62.65 52.79,-71.7 54.12,-61.19 47.27,-62.65"/>
</g>
</g>
</svg>
